<?xml version="1.0" encoding="utf-8"?>
<!-- Generator: Adobe Illustrator 28.3.0, SVG Export Plug-In . SVG Version: 6.00 Build 0)  -->
<svg version="1.1" xmlns="http://www.w3.org/2000/svg" xmlns:xlink="http://www.w3.org/1999/xlink" x="0px" y="0px"
	 viewBox="0 0 16 16" style="enable-background:new 0 0 16 16;" xml:space="preserve">
<style type="text/css">
	.st0{display:none;}
	.st1{fill:#FFFFFF;}
	.st2{fill:#2B2D30;}
	.st3{display:inline;}
	.st4{fill:#E7F7ED;}
	.st5{fill:#274435;}
	.st6{fill:#37A534;}
	.st7{display:inline;fill:#274435;}
	.st8{fill:#E0E0E0;}
	.st9{fill:none;stroke:#E0E0E0;stroke-miterlimit:10;}
	.st10{display:inline;fill:none;stroke:#E0E0E0;stroke-miterlimit:10;}
	.st11{fill:#5F605F;}
	.st12{fill:none;stroke:#5F605F;stroke-miterlimit:10;}
	.st13{display:none;fill:#FFFFFF;}
	.st14{fill:#50AF4E;}
	.st15{display:inline;fill:#595959;}
	.st16{display:inline;fill:#E0E0E0;}
</style>
<g id="Background_Example" class="st0">
	<rect id="Light" class="st1" width="16" height="16"/>
	<rect id="Dark" class="st2" width="16" height="16"/>
</g>
<g id="Outline_00000137811378828807339840000016804809543406298265_">
	<g id="Outlines_Raw" class="st0">
		<g id="Outline_Fill_Light" class="st3">
			<path class="st4" d="M11.79,14.5H4.21C2.44,14.5,1,13.06,1,11.29V4.67C1,3.47,1.97,2.5,3.17,2.5h8.62C13.56,2.5,15,3.94,15,5.71
				v5.57C15,13.06,13.56,14.5,11.79,14.5z"/>
		</g>
		<g id="Outline_Fill_Dark_00000079455656156688453870000003444930999045641380_" class="st3">
			<path class="st5" d="M11.79,14.5H4.21C2.44,14.5,1,13.06,1,11.29V5.71C1,3.94,2.44,2.5,4.21,2.5h7.57C13.56,2.5,15,3.94,15,5.71
				v5.57C15,13.06,13.56,14.5,11.79,14.5z"/>
		</g>
		<g id="Outline" class="st3">
			<path class="st6" d="M11.71,3c1.54,0,2.79,1.25,2.79,2.79v5.42c0,1.54-1.25,2.79-2.79,2.79H4.29c-1.54,0-2.79-1.25-2.79-2.79V4.5
				C1.5,3.67,2.17,3,3,3H11.71 M11.71,2H3C1.62,2,0.5,3.12,0.5,4.5v6.71C0.5,13.3,2.2,15,4.29,15h7.42c2.09,0,3.79-1.7,3.79-3.79
				V5.79C15.5,3.7,13.8,2,11.71,2L11.71,2z"/>
		</g>
	</g>
	<g>
		<g id="OutlineFill_cutted">
			<path class="st4" d="M8,10.8C8,9.81,8.81,9,9.8,9H15V5.71c0-1.78-1.44-3.21-3.21-3.21H3.17C1.97,2.5,1,3.47,1,4.67v6.62
				c0,1.78,1.44,3.21,3.21,3.21H8V10.8z"/>
		</g>
		<g id="OutlineFill_Dark_cutted" class="st0">
			<path class="st7" d="M8,10.8C8,9.81,8.81,9,9.8,9H15V5.71c0-1.78-1.44-3.21-3.21-3.21H4.21C2.44,2.5,1,3.94,1,5.71v5.57
				c0,1.78,1.44,3.21,3.21,3.21H8V10.8z"/>
		</g>
		<path id="Outline_cutted" class="st6" d="M8,14H4.29c-1.54,0-2.79-1.25-2.79-2.79V4.5C1.5,3.67,2.17,3,3,3h8.71
			c1.54,0,2.79,1.25,2.79,2.79V9h1V5.79C15.5,3.7,13.8,2,11.71,2H3C1.62,2,0.5,3.12,0.5,4.5v6.71C0.5,13.3,2.2,15,4.29,15H8V14z"/>
	</g>
	<g id="Tree_Dark" class="st0">
		<g id="Tree_Sub2" class="st3">
			<path class="st8" d="M3,3c0.83,0,1.5,0.67,1.5,1.5S3.83,6,3,6S1.5,5.33,1.5,4.5S2.17,3,3,3 M3,2C1.62,2,0.5,3.12,0.5,4.5
				S1.62,7,3,7s2.5-1.12,2.5-2.5S4.38,2,3,2L3,2z"/>
		</g>
		<g id="Tree_Sub1" class="st3">
			<path class="st8" d="M6,10c0.55,0,1,0.45,1,1s-0.45,1-1,1s-1-0.45-1-1S5.45,10,6,10 M6,9c-1.1,0-2,0.9-2,2s0.9,2,2,2s2-0.9,2-2
				S7.1,9,6,9L6,9z"/>
		</g>
		<g id="Tree_Root_00000101787515273228787020000001790130695136970376_" class="st3">
			<path class="st8" d="M11,6c0.55,0,1,0.45,1,1s-0.45,1-1,1s-1-0.45-1-1S10.45,6,11,6 M11,5C9.9,5,9,5.9,9,7s0.9,2,2,2s2-0.9,2-2
				S12.1,5,11,5L11,5z"/>
		</g>
		<g id="Line_to_Sub2" class="st3">
			<line class="st9" x1="3.5" y1="6.5" x2="5.5" y2="9.5"/>
		</g>
		<line id="Line_to_Sub1" class="st10" x1="4.5" y1="5.5" x2="9.5" y2="6.5"/>
	</g>
	<g id="Tree_Light_00000059297295084251056620000006370120078895703169_">
		<g id="Tree_Sub2_00000071549342831828799330000013556130493627915184_">
			<path class="st11" d="M3,3c0.83,0,1.5,0.67,1.5,1.5S3.83,6,3,6S1.5,5.33,1.5,4.5S2.17,3,3,3 M3,2C1.62,2,0.5,3.12,0.5,4.5
				S1.62,7,3,7s2.5-1.12,2.5-2.5S4.38,2,3,2L3,2z"/>
		</g>
		<g id="Tree_Sub1_00000129171407961784917390000015716260457838749064_">
			<path class="st11" d="M6,10c0.55,0,1,0.45,1,1s-0.45,1-1,1s-1-0.45-1-1S5.45,10,6,10 M6,9c-1.1,0-2,0.9-2,2s0.9,2,2,2s2-0.9,2-2
				S7.1,9,6,9L6,9z"/>
		</g>
		<g id="Tree_Root_00000027606952817004640360000007784183618695450787_">
			<path class="st11" d="M11,6c0.55,0,1,0.45,1,1s-0.45,1-1,1s-1-0.45-1-1S10.45,6,11,6 M11,5C9.9,5,9,5.9,9,7s0.9,2,2,2s2-0.9,2-2
				S12.1,5,11,5L11,5z"/>
		</g>
		<g id="Line_to_Sub2_00000060032481808373451960000015462929310351324066_">
			<line class="st12" x1="3.5" y1="6.5" x2="5.5" y2="9.5"/>
		</g>
		<line id="Line_to_Sub1_00000181780435193111895040000014586697812017843074_" class="st12" x1="4.5" y1="5.5" x2="9.5" y2="6.5"/>
	</g>
</g>
<g id="Suffix">
	<path id="Hy_Cover_00000043441183818388941040000006805719491727594382_" class="st13" d="M16,16H8v-5.2C8,9.81,8.81,9,9.8,9H16V16
		z"/>
	<g>
		<path class="st14" d="M9.89,10.79v1.14h1.78v-1.14c0-0.16,0.04-0.29,0.11-0.37c0.07-0.08,0.17-0.12,0.3-0.12
			c0.12,0,0.22,0.04,0.3,0.12c0.08,0.08,0.12,0.2,0.12,0.37v3.15c0,0.17-0.04,0.29-0.12,0.37s-0.18,0.12-0.3,0.12
			c-0.12,0-0.22-0.04-0.3-0.12c-0.07-0.08-0.11-0.21-0.11-0.37V12.6H9.89v1.34c0,0.17-0.04,0.29-0.12,0.37
			c-0.08,0.08-0.18,0.12-0.3,0.12c-0.12,0-0.22-0.04-0.3-0.12c-0.07-0.08-0.11-0.21-0.11-0.37v-3.15c0-0.16,0.04-0.29,0.11-0.37
			s0.17-0.12,0.3-0.12c0.12,0,0.22,0.04,0.3,0.12C9.85,10.51,9.89,10.63,9.89,10.79z"/>
		<path class="st14" d="M14.03,14.53l0.07-0.17l-0.93-2.31c-0.06-0.13-0.09-0.23-0.09-0.29c0-0.06,0.02-0.12,0.05-0.18
			s0.08-0.1,0.14-0.13c0.06-0.03,0.12-0.05,0.18-0.05c0.11,0,0.19,0.03,0.25,0.1c0.06,0.07,0.1,0.17,0.15,0.29l0.64,1.83l0.61-1.7
			c0.05-0.14,0.09-0.25,0.13-0.33c0.04-0.08,0.08-0.13,0.12-0.16c0.04-0.03,0.11-0.04,0.19-0.04c0.06,0,0.11,0.01,0.17,0.04
			c0.05,0.03,0.09,0.07,0.12,0.12c0.03,0.05,0.04,0.1,0.04,0.16c-0.01,0.03-0.02,0.08-0.04,0.15c-0.02,0.06-0.04,0.13-0.06,0.19
			l-0.99,2.54c-0.09,0.22-0.17,0.4-0.25,0.53c-0.08,0.13-0.19,0.23-0.32,0.29c-0.13,0.07-0.32,0.1-0.54,0.1
			c-0.22,0-0.39-0.02-0.5-0.07c-0.11-0.05-0.17-0.13-0.17-0.26c0-0.08,0.03-0.15,0.08-0.2s0.13-0.07,0.23-0.07
			c0.04,0,0.08,0,0.12,0.02c0.05,0.01,0.09,0.02,0.12,0.02c0.09,0,0.16-0.01,0.21-0.04c0.05-0.03,0.09-0.07,0.13-0.13
			C13.93,14.74,13.98,14.65,14.03,14.53z"/>
	</g>
	<g id="Hi__x28_light_x29_" class="st0">
		<path class="st15" d="M9.35,5.5v4.42c0,0.2-0.13,0.34-0.35,0.34c-0.21,0-0.35-0.14-0.35-0.34V7.96H5.37v1.97
			c0,0.2-0.14,0.34-0.35,0.34c-0.22,0-0.35-0.14-0.35-0.34V5.5c0-0.2,0.13-0.35,0.35-0.35c0.21,0,0.35,0.14,0.35,0.35v1.84h3.28V5.5
			c0-0.2,0.14-0.35,0.35-0.35C9.22,5.16,9.35,5.3,9.35,5.5z"/>
		<path class="st15" d="M10.57,5.16c0-0.24,0.18-0.4,0.44-0.4c0.27,0,0.45,0.16,0.45,0.4s-0.18,0.4-0.45,0.4
			C10.75,5.56,10.57,5.39,10.57,5.16z M11.36,6.69v3.25c0,0.2-0.14,0.34-0.35,0.34c-0.21,0-0.34-0.13-0.34-0.34V6.69
			c0-0.2,0.14-0.34,0.34-0.34C11.22,6.35,11.36,6.48,11.36,6.69z"/>
	</g>
	<g id="Hi__x28_dark_x29_" class="st0">
		<path class="st16" d="M9.35,6.5v4.42c0,0.2-0.13,0.34-0.35,0.34c-0.21,0-0.35-0.14-0.35-0.34V8.96H5.37v1.97
			c0,0.2-0.14,0.34-0.35,0.34c-0.22,0-0.35-0.14-0.35-0.34V6.5c0-0.2,0.13-0.35,0.35-0.35c0.21,0,0.35,0.14,0.35,0.35v1.84h3.28V6.5
			c0-0.2,0.14-0.35,0.35-0.35C9.22,6.16,9.35,6.3,9.35,6.5z"/>
		<path class="st16" d="M10.57,6.16c0-0.24,0.18-0.4,0.44-0.4c0.27,0,0.45,0.16,0.45,0.4s-0.18,0.4-0.45,0.4
			C10.75,6.56,10.57,6.39,10.57,6.16z M11.36,7.69v3.25c0,0.2-0.14,0.34-0.35,0.34c-0.21,0-0.34-0.13-0.34-0.34V7.69
			c0-0.2,0.14-0.34,0.34-0.34C11.22,7.35,11.36,7.48,11.36,7.69z"/>
	</g>
	<g>
	</g>
	<g>
	</g>
	<g>
	</g>
	<g>
	</g>
	<g>
	</g>
	<g>
	</g>
	<g>
	</g>
	<g>
	</g>
	<g>
	</g>
	<g>
	</g>
	<g>
	</g>
	<g>
	</g>
	<g>
	</g>
	<g>
	</g>
	<g>
	</g>
</g>
</svg>
